<?xml version="1.0" standalone="no"?>
<!DOCTYPE svg PUBLIC "-//W3C//DTD SVG 20010904//EN"
 "http://www.w3.org/TR/2001/REC-SVG-20010904/DTD/svg10.dtd">
<svg version="1.0" xmlns="http://www.w3.org/2000/svg"
 width="500.000000pt" height="500.000000pt" viewBox="0 0 500.000000 500.000000"
 preserveAspectRatio="xMidYMid meet">

<g transform="translate(0.000000,500.000000) scale(0.100000,-0.100000)"
fill="#000000" stroke="none">
<path d="M2077 3202 l-437 -437 55 -55 55 -55 384 384 c334 334 385 381 397
368 8 -8 113 -114 233 -235 l219 -221 51 -6 c51 -6 152 -2 161 6 2 3 -150 159
-338 347 l-342 342 -438 -438z"/>
<path d="M1608 3144 c-236 -234 -428 -431 -428 -438 0 -11 737 -750 836 -838
l31 -27 29 28 c16 15 40 39 53 53 l23 27 -376 375 c-207 206 -376 381 -376
389 0 7 167 178 370 380 204 202 370 370 370 375 0 11 -86 102 -96 102 -5 0
-201 -192 -436 -426z"/>
<path d="M2520 3115 l-55 -55 58 -58 57 -57 85 -4 c47 -1 97 0 112 4 l26 6
-39 36 c-21 20 -73 69 -114 109 l-76 74 -54 -55z"/>
<path d="M1962 2782 c-9 -7 -12 -71 -10 -288 l3 -279 40 0 40 0 0 210 c0 116
4 212 9 213 9 4 121 -141 165 -210 12 -21 28 -38 35 -38 6 0 53 59 104 130 51
72 97 130 102 130 6 0 11 -90 12 -217 l3 -218 38 -3 37 -3 0 290 0 291 -45 0
c-44 0 -46 -1 -98 -72 -29 -40 -71 -99 -92 -131 -38 -59 -65 -81 -73 -59 -2 7
-9 18 -16 25 -7 6 -39 50 -71 97 -82 119 -103 140 -139 140 -17 0 -37 -4 -44
-8z"/>
<path d="M2730 2499 l0 -290 38 3 37 3 5 120 5 120 155 0 155 0 3 -123 3 -123
37 3 37 3 3 288 2 287 -40 0 -39 0 -3 -127 -3 -128 -155 0 -155 0 -3 128 -3
127 -39 0 -40 0 0 -291z"/>
<path d="M3379 2783 c0 -5 -2 -16 -4 -27 -8 -41 3 -46 101 -46 l94 0 0 -250 0
-250 40 0 40 0 2 251 3 251 90 2 90 1 3 38 3 37 -230 0 c-127 0 -231 -3 -232
-7z"/>
<path d="M1287 2282 c-26 -26 -47 -52 -47 -58 0 -6 91 -100 203 -209 111 -109
304 -300 429 -423 124 -123 231 -223 236 -221 5 2 166 158 358 347 l348 342
-108 0 -109 0 -106 -103 c-58 -57 -166 -161 -239 -232 -73 -72 -139 -130 -146
-130 -7 0 -181 164 -385 365 -205 201 -375 366 -379 368 -4 1 -29 -19 -55 -46z"/>
<path d="M2732 1797 l-263 -262 55 -54 c31 -30 58 -53 60 -50 44 41 626 624
626 626 0 2 -48 3 -107 3 l-108 -1 -263 -262z"/>
</g>
</svg>
